<?xml version="1.0" standalone="no"?>
<!DOCTYPE svg PUBLIC "-//W3C//DTD SVG 20010904//EN"
 "http://www.w3.org/TR/2001/REC-SVG-20010904/DTD/svg10.dtd">
<svg version="1.0" xmlns="http://www.w3.org/2000/svg"
 width="200.000000pt" height="200.000000pt" viewBox="0 0 200.000000 200.000000"
 preserveAspectRatio="xMidYMid meet">

<g transform="translate(0.000000,200.000000) scale(0.100000,-0.100000)"
fill="#000000" stroke="none">
<path d="M938 1838 c-8 -7 -27 -20 -43 -28 -17 -9 -31 -25 -33 -36 -3 -18 2
-20 32 -16 51 6 54 -15 16 -85 -49 -89 -50 -196 -4 -318 17 -43 -24 6 -45 54
-30 70 -36 146 -17 201 8 24 14 45 13 45 -1 0 -15 5 -31 10 -33 11 -41 23 -56
83 -14 57 -46 78 -94 62 -48 -15 -152 -97 -208 -163 -53 -62 -95 -127 -81
-127 24 0 105 64 162 128 61 68 117 112 145 112 7 0 21 -21 31 -46 12 -33 28
-52 54 -67 28 -17 32 -23 18 -25 -30 -6 -76 18 -105 54 l-28 34 -39 -40 -39
-40 20 -27 c27 -37 78 -70 128 -85 l41 -13 -40 -3 c-54 -5 -108 13 -150 49
l-34 30 -37 -41 c-40 -44 -81 -70 -129 -79 -27 -6 -32 -13 -47 -71 -17 -66
-24 -190 -10 -190 16 0 52 69 58 113 7 51 19 54 29 7 4 -17 11 -30 15 -30 13
0 59 50 76 83 17 32 18 32 54 7 44 -32 149 -78 214 -94 66 -18 71 -20 61 -35
-8 -14 -97 -13 -208 3 -105 15 -100 21 -116 -124 -15 -137 13 -314 64 -410 13
-23 14 -19 15 53 l0 78 42 -3 42 -3 -3 -128 c-2 -108 0 -132 15 -155 20 -31
40 -52 48 -52 3 0 6 77 6 170 l0 170 40 0 40 0 0 -208 0 -208 29 -17 c16 -9
32 -17 35 -17 3 0 6 101 6 225 l0 225 40 0 40 0 0 -250 c0 -223 2 -251 16
-257 9 -3 24 -2 33 4 14 9 16 43 19 257 l2 246 40 0 40 0 0 -225 c0 -124 3
-225 8 -225 4 0 17 8 29 18 22 16 23 23 25 222 l3 205 40 0 40 0 0 -167 c0
-93 3 -168 6 -168 3 0 17 13 32 28 27 28 27 30 27 171 l0 142 43 -3 42 -3 1
-58 c1 -32 4 -60 7 -63 9 -9 48 106 63 184 18 94 18 166 -1 271 -8 46 -16 85
-17 86 -2 1 -43 -4 -93 -11 -127 -18 -201 -18 -209 1 -4 10 3 17 22 21 87 19
194 64 254 105 35 26 41 24 62 -15 10 -19 31 -46 46 -61 l27 -26 13 43 13 43
12 -50 c13 -56 27 -86 49 -105 14 -11 16 -5 16 56 0 38 -4 85 -9 104 -5 19
-12 47 -15 63 -5 19 -13 27 -28 27 -37 0 -106 40 -143 83 -35 40 -36 41 -50
20 -23 -32 -109 -65 -163 -61 l-47 3 57 19 c59 19 128 74 128 101 0 8 -16 31
-36 52 l-36 37 -25 -32 c-27 -35 -71 -62 -100 -62 -13 0 -7 8 19 31 23 18 42
45 49 70 8 25 18 39 29 39 27 0 91 -51 155 -124 55 -63 139 -125 152 -113 10
11 -84 132 -149 192 -34 32 -87 69 -116 83 -69 31 -95 21 -120 -51 -19 -53
-51 -83 -96 -88 -28 -4 -30 -1 -42 51 -8 30 -14 70 -15 88 -2 20 -9 37 -20 43
-25 13 -105 11 -121 -3z m-248 -788 c0 -89 0 -90 -25 -90 -24 0 -25 2 -25 65
0 51 -3 65 -15 65 -8 0 -15 9 -15 19 0 19 9 23 68 30 9 1 12 -23 12 -89z m120
0 c0 -89 0 -90 -25 -90 -24 0 -25 2 -25 64 0 49 -4 65 -16 70 -22 8 -13 29 17
37 49 14 49 14 49 -81z m450 58 l0 -33 23 32 c15 23 30 33 50 33 34 0 34 -7
-2 -50 l-29 -35 35 -47 35 -48 -35 0 c-29 0 -39 6 -56 33 l-21 32 0 -32 c0
-30 -3 -33 -30 -33 l-30 0 0 90 0 90 30 0 c27 0 30 -3 30 -32z m-244 -3 c5
-21 12 -25 45 -25 46 0 50 -12 10 -36 -26 -15 -27 -19 -18 -45 14 -37 5 -45
-27 -24 -24 16 -28 16 -52 0 -32 -21 -39 -14 -26 24 10 28 8 32 -19 48 -40 24
-37 33 11 33 34 0 41 4 46 25 3 14 10 25 15 25 5 0 11 -11 15 -25z"/>
<path d="M1670 1123 c0 -13 -4 -23 -10 -23 -5 0 -10 -7 -10 -16 0 -8 -7 -22
-15 -30 -11 -11 -12 -20 -5 -34 6 -10 10 -34 10 -52 0 -63 17 -62 24 1 10 88
28 89 20 1 l-7 -72 29 27 c24 23 29 34 29 80 1 37 -3 56 -12 60 -8 2 -13 11
-11 19 2 8 -1 14 -5 13 -5 -1 -15 9 -22 23 -14 25 -14 25 -15 3z"/>
<path d="M327 1110 c-25 -69 -27 -90 -16 -134 6 -25 15 -46 19 -46 9 0 30 71
29 101 -1 37 -26 97 -32 79z"/>
<path d="M261 910 c-1 -60 7 -77 77 -155 l42 -48 0 29 c0 16 7 49 16 74 16 45
12 130 -5 130 -15 0 -33 -87 -30 -139 5 -62 -11 -62 -30 0 -7 24 -26 71 -42
104 l-28 60 0 -55z"/>
<path d="M1613 905 c0 -15 5 -25 13 -25 17 0 17 10 0 33 -12 16 -13 15 -13 -8z"/>
<path d="M1730 905 c-13 -16 -7 -45 9 -45 15 0 23 18 12 25 -6 3 -8 12 -4 20
7 19 -1 19 -17 0z"/>
<path d="M1647 850 c-9 -13 -20 -18 -31 -14 -13 5 -16 -2 -16 -45 0 -40 -3
-51 -16 -51 -13 0 -15 -7 -9 -42 7 -43 12 -55 18 -47 9 12 57 128 57 138 0 6
5 11 10 11 13 0 5 -31 -30 -123 -16 -39 -27 -73 -26 -75 2 -1 26 11 54 29 45
27 49 34 39 50 -9 15 -7 24 11 48 25 35 27 49 9 83 -13 26 -42 58 -51 58 -3 0
-11 -9 -19 -20z"/>
<path d="M280 759 c0 -8 7 -39 15 -67 17 -56 44 -87 118 -132 l47 -30 0 28 c0
17 -3 23 -8 14 -10 -15 -23 -2 -70 73 -43 68 -102 134 -102 114z"/>
<path d="M416 718 c-5 -33 -2 -58 10 -88 17 -41 18 -42 26 -19 11 28 2 94 -16
128 -13 23 -13 23 -20 -21z"/>
<path d="M1538 674 c-4 -3 -4 -12 -1 -20 3 -8 0 -14 -6 -14 -6 0 -11 -9 -11
-20 0 -18 3 -19 20 -10 21 11 26 36 12 58 -5 7 -11 10 -14 6z"/>
<path d="M1662 604 c-22 -15 -32 -74 -13 -74 15 0 33 28 26 40 -4 6 -1 18 6
26 17 21 6 26 -19 8z"/>
<path d="M490 563 c0 -44 5 -59 36 -98 19 -26 33 -49 30 -52 -3 -3 -31 19 -63
49 -32 30 -76 63 -98 73 -22 10 -43 19 -47 22 -15 8 36 -78 58 -98 13 -12 59
-34 102 -48 l79 -27 -18 40 c-10 23 -19 52 -19 66 0 24 -31 94 -51 115 -5 5
-9 -12 -9 -42z"/>
<path d="M1553 579 c-13 -5 -23 -12 -23 -17 0 -5 -10 -7 -22 -5 -19 3 -26 -3
-40 -36 -11 -27 -21 -39 -31 -36 -15 6 -46 -70 -33 -83 5 -4 39 26 77 66 38
41 69 69 69 63 0 -25 -51 -89 -99 -126 -28 -21 -50 -39 -48 -40 1 -1 32 0 70
3 62 4 67 6 67 27 0 16 11 30 35 44 39 23 54 49 35 61 -7 4 -9 16 -5 29 9 30
-23 61 -52 50z"/>
<path d="M599 448 c3 -18 11 -40 16 -49 10 -16 84 -69 97 -69 14 0 -31 65 -75
108 l-44 43 6 -33z"/>
<path d="M1357 450 c-21 -24 -22 -40 -3 -40 8 0 17 12 20 26 9 34 4 38 -17 14z"/>
<path d="M490 351 c32 -46 91 -71 165 -70 56 0 128 16 82 18 -10 1 -36 10 -57
21 -22 11 -70 27 -107 34 -38 8 -77 18 -87 22 -18 7 -18 5 4 -25z"/>
<path d="M1294 369 c-3 -6 -17 -8 -30 -5 -18 5 -29 -1 -51 -29 -18 -22 -34
-33 -44 -30 -10 4 -23 -4 -34 -21 -15 -23 -15 -26 -2 -21 9 3 35 11 59 17 23
7 65 23 93 37 l50 24 -31 -29 c-42 -39 -119 -67 -230 -83 -111 -15 -175 -3
-200 40 -16 26 -123 106 -131 97 -7 -7 27 -59 55 -83 l25 -21 -49 -7 c-27 -4
-67 -11 -89 -14 l-40 -7 42 -22 c49 -26 78 -27 153 -7 64 17 100 19 100 5 0
-5 -6 -10 -12 -10 -19 0 -74 -47 -66 -56 5 -4 16 0 25 8 33 28 82 48 120 48
36 0 100 -30 115 -53 4 -6 11 -8 15 -3 10 10 -42 56 -63 56 -8 0 -12 5 -9 10
9 15 46 12 110 -10 71 -24 77 -25 73 -3 -2 14 7 19 50 24 63 8 70 14 55 39
-10 15 -8 21 10 34 18 12 19 17 8 24 -9 7 -11 19 -7 36 7 27 -2 34 -21 15 -8
-8 -13 -8 -17 0 -9 14 -23 14 -32 0z"/>
<path d="M1414 305 c-11 -34 -11 -35 17 -35 22 0 29 5 29 19 0 10 10 26 23 34
22 16 21 16 -18 16 -37 1 -41 -2 -51 -34z"/>
</g>
</svg>
