<?xml version="1.0" standalone="no"?>
<!DOCTYPE svg PUBLIC "-//W3C//DTD SVG 20010904//EN"
 "http://www.w3.org/TR/2001/REC-SVG-20010904/DTD/svg10.dtd">
<svg version="1.0" xmlns="http://www.w3.org/2000/svg"
 width="200.000000pt" height="200.000000pt" viewBox="0 0 200.000000 200.000000"
 preserveAspectRatio="xMidYMid meet">

<g transform="translate(0.000000,200.000000) scale(0.100000,-0.100000)"
fill="#000000" stroke="none">
<path d="M0 1000 l0 -1000 1000 0 1000 0 0 1000 0 1000 -1000 0 -1000 0 0
-1000z m1150 30 l0 -590 -65 0 -65 0 0 590 0 590 65 0 65 0 0 -590z m-341 156
c75 -52 103 -163 62 -244 -35 -68 -93 -102 -174 -102 -132 0 -225 141 -173
263 17 39 71 91 111 106 51 18 129 8 174 -23z"/>
</g>
</svg>
