<svg version="1.1" id="Layer_1" xmlns="http://www.w3.org/2000/svg" xmlns:xlink="http://www.w3.org/1999/xlink" x="0px" y="0px"
	 width="100%" viewBox="0 0 100 100" enable-background="new 0 0 100 100" xml:space="preserve">
<path fill="#FEFFFF" opacity="1.000000" stroke="none" 
	d="
M84.000000,101.000000 
	C56.378899,101.000000 28.757797,101.000000 1.068348,101.000000 
	C1.068348,67.767250 1.068348,34.534321 1.068348,1.000000 
	C28.353489,1.000000 55.708088,1.000000 83.531342,1.468157 
	C83.734146,11.954334 83.391342,21.971067 83.224052,31.990734 
	C83.056038,42.053905 83.117111,52.121140 82.904869,62.182941 
	C82.884781,63.135250 81.630272,64.061516 80.855957,64.538681 
	C80.579338,55.244682 80.395630,46.411877 80.373955,37.176399 
	C80.397278,31.838829 80.258568,26.903933 80.222290,21.640732 
	C80.428200,19.181341 80.779671,17.027002 80.582489,14.924110 
	C80.196587,10.808648 79.504578,6.721889 78.622101,2.404628 
	C75.214417,2.355873 72.123917,2.525738 68.653870,2.766483 
	C67.506287,2.796350 66.738243,2.755338 65.653038,2.477427 
	C61.896767,2.423498 58.457653,2.606469 54.555595,2.861914 
	C49.058868,2.910669 44.025082,2.886948 38.733376,2.610816 
	C36.652393,2.535636 34.829330,2.712869 32.581131,2.957863 
	C30.436794,2.995533 28.717594,2.965442 26.760704,2.674742 
	C25.025627,2.629054 23.528240,2.843976 22.019989,3.027822 
	C22.009123,2.996746 22.053478,3.045722 21.803959,3.099095 
	C21.375904,3.427718 21.197367,3.702968 21.019196,3.992354 
	C21.019564,4.006491 20.997780,4.024529 20.735981,4.222040 
	C20.611252,5.609271 20.748322,6.798991 20.945234,8.415490 
	C20.965046,10.563355 20.925014,12.284443 20.679287,14.156842 
	C20.611067,14.870410 20.748541,15.432664 20.944677,16.394096 
	C20.969337,17.866335 20.935333,18.939396 20.660183,20.230577 
	C20.582348,21.628363 20.745661,22.808029 20.967512,24.453960 
	C21.041378,33.916260 21.056705,42.912292 21.167444,52.201141 
	C21.823914,52.714134 22.384972,52.934315 22.963686,53.549828 
	C22.404928,55.721947 21.642183,57.464108 21.303852,59.285122 
	C20.956884,61.152626 21.025049,63.097256 20.989349,65.430382 
	C21.186365,67.829880 21.305557,69.807137 21.099670,71.994194 
	C20.884417,75.478912 20.994242,78.753830 21.118153,82.476860 
	C21.073381,85.617882 21.014526,88.310791 20.791897,91.108292 
	C20.803686,91.457405 20.979248,91.701904 21.480198,92.020050 
	C22.234608,92.211281 22.663628,92.328865 23.265377,92.594101 
	C23.947638,92.566536 24.457169,92.391327 25.289711,92.101074 
	C26.067085,91.950821 26.521452,91.915611 27.218143,92.181587 
	C31.366093,92.901428 35.472237,93.075958 35.023460,98.765617 
	C35.018524,98.828194 35.605858,98.937469 35.943001,99.007767 
	C35.969296,98.990601 36.002880,99.041199 36.077179,99.202835 
	C36.430458,99.306961 36.709435,99.249451 37.381157,99.158714 
	C38.548309,99.003265 39.322708,98.881050 40.558693,98.781235 
	C52.585232,98.664635 64.150185,98.525635 75.839226,98.680687 
	C77.064026,98.765083 78.164734,98.555428 79.570724,98.229309 
	C80.250381,92.408562 80.624779,86.704285 81.373383,81.047058 
	C82.414948,82.849655 83.219444,84.566841 83.723221,86.368134 
	C85.076195,91.205826 81.386536,96.163506 84.000000,101.000000 
z"/>
<path fill="#FFFFFF" opacity="1.000000" stroke="none" 
	d="
M84.470459,101.000000 
	C81.386536,96.163506 85.076195,91.205826 83.723221,86.368134 
	C83.219444,84.566841 82.414948,82.849655 81.288696,80.586441 
	C80.869492,75.052467 80.909180,70.026169 80.948868,64.999878 
	C81.630272,64.061516 82.884781,63.135250 82.904869,62.182941 
	C83.117111,52.121140 83.056038,42.053905 83.224052,31.990734 
	C83.391342,21.971067 83.734146,11.954334 84.000000,1.468157 
	C89.647949,1.000000 95.295906,1.000000 100.943947,1.000015 
	C100.944038,34.333374 100.944038,67.666718 100.944038,101.000000 
	C95.572357,101.000000 90.256630,101.000000 84.470459,101.000000 
z"/>
<path fill="#27AEE3" opacity="1.000000" stroke="none" 
	d="
M26.998394,2.935351 
	C28.717594,2.965442 30.436794,2.995533 33.000069,3.060808 
	C35.559864,3.018404 37.275578,2.940816 38.991295,2.863228 
	C44.025082,2.886948 49.058868,2.910669 55.000793,2.972407 
	C59.262684,2.911725 62.616436,2.813026 65.970192,2.714327 
	C66.738243,2.755338 67.506287,2.796350 69.054283,2.883659 
	C71.221184,3.024181 72.608147,3.118406 74.284180,3.447331 
	C78.623894,5.070730 80.455742,14.324578 77.651726,18.876957 
	C77.110626,19.755440 76.929657,20.855745 76.582558,21.853724 
	C77.761658,21.892160 78.940765,21.930599 80.119858,21.969038 
	C80.258568,26.903933 80.397278,31.838829 80.263573,36.981613 
	C74.665092,38.893131 74.665092,38.893131 76.500450,44.670731 
	C74.341606,46.443253 72.182945,48.216000 69.666084,49.936127 
	C67.879715,49.107750 66.451561,48.331993 65.102486,47.599190 
	C66.808189,39.989994 64.952698,35.615395 58.778416,31.130520 
	C57.235390,30.009697 55.618591,28.244221 55.172459,26.486507 
	C53.048073,18.116652 43.526337,11.874256 34.325760,13.569949 
	C35.315331,14.106477 35.968571,14.531437 36.674664,14.832426 
	C43.022343,17.538284 45.450603,22.711246 44.635651,29.111320 
	C44.262989,32.037994 42.745399,35.359028 40.673203,37.423126 
	C35.437214,42.638664 29.592558,47.243141 23.621540,52.095200 
	C22.524891,52.034748 21.798460,51.971539 21.072031,51.908325 
	C21.056705,42.912292 21.041378,33.916260 21.061333,24.062927 
	C21.031521,22.141239 20.966425,21.076849 20.901329,20.012459 
	C20.935333,18.939396 20.969337,17.866335 21.032894,16.066441 
	C21.003292,14.894916 20.944138,14.450223 20.884981,14.005529 
	C20.925014,12.284443 20.965046,10.563355 21.038876,8.026942 
	C21.047710,6.149253 21.022745,5.086891 20.997780,4.024529 
	C20.997780,4.024529 21.019564,4.006491 21.234085,3.887623 
	C21.737309,3.600605 21.938932,3.359595 22.053478,3.045722 
	C22.053478,3.045722 22.009123,2.996746 22.431080,3.096626 
	C24.234823,3.109455 25.616610,3.022403 26.998394,2.935351 
z"/>
<path fill="#F1FAFB" opacity="1.000000" stroke="none" 
	d="
M23.991762,52.092438 
	C29.592558,47.243141 35.437214,42.638664 40.673203,37.423126 
	C42.745399,35.359028 44.262989,32.037994 44.635651,29.111320 
	C45.450603,22.711246 43.022343,17.538284 36.674664,14.832426 
	C35.968571,14.531437 35.315331,14.106477 34.325760,13.569949 
	C43.526337,11.874256 53.048073,18.116652 55.172459,26.486507 
	C55.618591,28.244221 57.235390,30.009697 58.778416,31.130520 
	C64.952698,35.615395 66.808189,39.989994 65.102486,47.599190 
	C66.451561,48.331993 67.879715,49.107750 69.826027,50.238708 
	C75.858322,54.916790 76.773247,60.895710 74.317223,66.671211 
	C72.118340,71.842010 68.686272,76.722183 64.914330,80.940071 
	C57.741970,88.960403 47.936745,93.265259 38.167095,97.868874 
	C37.221832,98.227707 36.569267,98.626328 35.916706,99.024948 
	C35.605858,98.937469 35.018524,98.828194 35.023460,98.765617 
	C35.472237,93.075958 31.366093,92.901428 27.465229,91.924126 
	C29.829655,90.591217 32.199917,89.847633 34.547184,89.037445 
	C45.594177,85.224411 55.208111,79.387398 62.016781,69.578850 
	C66.624626,62.940800 67.009071,58.666107 63.412437,53.354126 
	C60.142132,57.021500 57.130875,60.967106 53.550285,64.301308 
	C44.274403,72.938911 32.828823,77.778793 21.104065,82.028740 
	C20.994242,78.753830 20.884417,75.478912 21.427845,71.941292 
	C24.984425,70.546150 27.930000,69.510399 30.783325,68.263550 
	C40.135693,64.176735 48.168743,58.507931 53.375374,48.998993 
	C53.647198,47.520702 53.107357,45.736164 53.732914,45.102959 
	C56.965843,41.830513 57.028717,38.970871 53.623310,35.853886 
	C51.380630,39.207378 49.126759,42.577606 46.587746,46.118156 
	C41.572567,50.042255 36.926281,53.908535 32.084827,57.512653 
	C28.491680,60.187504 24.645174,62.522018 20.911522,65.008133 
	C21.025049,63.097256 20.956884,61.152626 21.303852,59.285122 
	C21.642183,57.464108 22.404928,55.721947 23.181812,53.415955 
	C23.585443,52.621971 23.788603,52.357204 23.991762,52.092438 
z"/>
<path fill="#2BB0E4" opacity="1.000000" stroke="none" 
	d="
M38.459793,97.908653 
	C47.936745,93.265259 57.741970,88.960403 64.914330,80.940071 
	C68.686272,76.722183 72.118340,71.842010 74.317223,66.671211 
	C76.773247,60.895710 75.858322,54.916790 70.184235,50.291328 
	C72.182945,48.216000 74.341606,46.443253 76.500450,44.670731 
	C74.665092,38.893131 74.665092,38.893131 80.101540,37.384289 
	C80.395630,46.411877 80.579338,55.244682 80.855957,64.538681 
	C80.909180,70.026169 80.869492,75.052467 80.914490,80.539383 
	C80.624779,86.704285 80.250381,92.408562 79.134979,98.093002 
	C77.501022,98.177650 76.608086,98.282150 75.715141,98.386642 
	C64.150185,98.525635 52.585232,98.664635 40.342442,98.550247 
	C39.263000,98.167458 38.861397,98.038055 38.459793,97.908653 
z"/>
<path fill="#2EB1E3" opacity="1.000000" stroke="none" 
	d="
M21.118151,82.476860 
	C32.828823,77.778793 44.274403,72.938911 53.550285,64.301308 
	C57.130875,60.967106 60.142132,57.021500 63.412437,53.354126 
	C67.009071,58.666107 66.624626,62.940800 62.016781,69.578850 
	C55.208111,79.387398 45.594177,85.224411 34.547184,89.037445 
	C32.199917,89.847633 29.829655,90.591217 27.222900,91.622948 
	C26.521452,91.915611 26.067085,91.950821 24.969625,92.044357 
	C23.915237,92.217278 23.503944,92.331871 23.092651,92.446457 
	C22.663628,92.328865 22.234608,92.211281 21.473139,91.775383 
	C21.140692,91.457077 20.955669,91.003693 20.955669,91.003693 
	C21.014526,88.310791 21.073381,85.617882 21.118151,82.476860 
z"/>
<path fill="#2EB3E2" opacity="1.000000" stroke="none" 
	d="
M20.989349,65.430382 
	C24.645174,62.522018 28.491680,60.187504 32.084827,57.512653 
	C36.926281,53.908535 41.572567,50.042255 46.982807,46.140347 
	C49.475765,47.069420 51.288528,48.146629 53.101292,49.223839 
	C48.168743,58.507931 40.135693,64.176735 30.783325,68.263550 
	C27.930000,69.510399 24.984425,70.546150 21.752922,71.731483 
	C21.305557,69.807137 21.186365,67.829880 20.989349,65.430382 
z"/>
<path fill="#2BB0E4" opacity="1.000000" stroke="none" 
	d="
M80.222290,21.640732 
	C78.940765,21.930599 77.761658,21.892160 76.582558,21.853724 
	C76.929657,20.855745 77.110626,19.755440 77.651726,18.876957 
	C80.455742,14.324578 78.623894,5.070730 74.693344,3.360725 
	C76.188705,2.900695 77.563995,2.761971 78.939278,2.623248 
	C79.504578,6.721889 80.196587,10.808648 80.582489,14.924110 
	C80.779671,17.027002 80.428200,19.181341 80.222290,21.640732 
z"/>
<path fill="#D6F8FD" opacity="1.000000" stroke="none" 
	d="
M65.653038,2.477427 
	C62.616436,2.813026 59.262684,2.911725 55.463730,2.899932 
	C58.457653,2.606469 61.896767,2.423498 65.653038,2.477427 
z"/>
<path fill="#D6F8FD" opacity="1.000000" stroke="none" 
	d="
M78.622101,2.404628 
	C77.563995,2.761971 76.188705,2.900695 74.404266,3.126025 
	C72.608147,3.118406 71.221184,3.024181 69.433823,2.812780 
	C72.123917,2.525738 75.214417,2.355873 78.622101,2.404628 
z"/>
<path fill="#D6F8FD" opacity="1.000000" stroke="none" 
	d="
M38.733376,2.610816 
	C37.275578,2.940816 35.559864,3.018404 33.425209,2.993047 
	C34.829330,2.712869 36.652393,2.535636 38.733376,2.610816 
z"/>
<path fill="#89D3EF" opacity="1.000000" stroke="none" 
	d="
M75.839226,98.680695 
	C76.608086,98.282150 77.501022,98.177650 78.829712,98.209473 
	C78.164734,98.555428 77.064026,98.765083 75.839226,98.680695 
z"/>
<path fill="#D6F8FD" opacity="1.000000" stroke="none" 
	d="
M26.760704,2.674742 
	C25.616610,3.022403 24.234823,3.109455 22.441948,3.127703 
	C23.528240,2.843976 25.025627,2.629054 26.760704,2.674742 
z"/>
<path fill="#D6F8FD" opacity="1.000000" stroke="none" 
	d="
M20.660183,20.230577 
	C20.966425,21.076849 21.031521,22.141239 21.002796,23.596663 
	C20.745661,22.808029 20.582348,21.628363 20.660183,20.230577 
z"/>
<path fill="#D6F8FD" opacity="1.000000" stroke="none" 
	d="
M20.735981,4.222040 
	C21.022745,5.086891 21.047710,6.149253 20.979034,7.600163 
	C20.748322,6.798991 20.611252,5.609271 20.735981,4.222040 
z"/>
<path fill="#89D3EF" opacity="1.000000" stroke="none" 
	d="
M38.167095,97.868874 
	C38.861397,98.038055 39.263000,98.167458 39.880859,98.527847 
	C39.322708,98.881050 38.548309,99.003265 37.140213,99.085693 
	C36.338646,99.044334 36.170765,99.042763 36.002880,99.041199 
	C36.002880,99.041199 35.969296,98.990601 35.943001,99.007774 
	C36.569267,98.626328 37.221832,98.227707 38.167095,97.868874 
z"/>
<path fill="#D6F8FD" opacity="1.000000" stroke="none" 
	d="
M23.621540,52.095200 
	C23.788603,52.357204 23.585443,52.621971 23.164158,53.020615 
	C22.384972,52.934315 21.823914,52.714134 21.167444,52.201141 
	C21.798460,51.971539 22.524891,52.034748 23.621540,52.095200 
z"/>
<path fill="#D6F8FD" opacity="1.000000" stroke="none" 
	d="
M20.679287,14.156842 
	C20.944138,14.450223 21.003292,14.894916 20.974230,15.667264 
	C20.748541,15.432664 20.611067,14.870410 20.679287,14.156842 
z"/>
<path fill="#F1FAFB" opacity="1.000000" stroke="none" 
	d="
M23.265377,92.594101 
	C23.503944,92.331871 23.915237,92.217278 24.646614,92.159401 
	C24.457169,92.391327 23.947638,92.566536 23.265377,92.594101 
z"/>
<path fill="#E6FCFD" opacity="1.000000" stroke="none" 
	d="
M36.077179,99.202835 
	C36.170765,99.042763 36.338646,99.044334 36.747467,99.118927 
	C36.709435,99.249451 36.430458,99.306961 36.077179,99.202835 
z"/>
<path fill="#F1FAFB" opacity="1.000000" stroke="none" 
	d="
M20.791897,91.108292 
	C20.955669,91.003693 21.140692,91.457077 21.147751,91.701744 
	C20.979248,91.701904 20.803686,91.457405 20.791897,91.108292 
z"/>
<path fill="#D6F8FD" opacity="1.000000" stroke="none" 
	d="
M21.803959,3.099095 
	C21.938932,3.359595 21.737309,3.600605 21.233719,3.873486 
	C21.197367,3.702968 21.375904,3.427718 21.803959,3.099095 
z"/>
<path fill="#3FB3DF" opacity="1.000000" stroke="none" 
	d="
M53.375374,48.998993 
	C51.288528,48.146629 49.475765,47.069420 47.267944,45.970016 
	C49.126759,42.577606 51.380630,39.207378 53.623310,35.853886 
	C57.028717,38.970871 56.965843,41.830513 53.732914,45.102959 
	C53.107357,45.736164 53.647198,47.520702 53.375374,48.998993 
z"/>
</svg>